<?xml version="1.0" encoding="UTF-8"?><svg id="Layer_2" xmlns="http://www.w3.org/2000/svg" viewBox="0 0 131.85 161.63"><defs><style>.cls-1{fill:#fff;}</style></defs><g id="Layer_1-2"><g id="X6CXB4.tif"><g><path class="cls-1" d="M87.7,42.24c-5.82-5.83-13.52-9.04-21.71-9.04h-.05c-16.8,.03-30.54,13.76-30.62,30.59-.05,8.19,3.12,15.9,8.92,21.73,5.82,5.83,13.52,9.05,21.73,9.05h.03c16.8-.02,30.54-13.74,30.64-30.59,.03-8.19-3.14-15.92-8.94-21.75Zm-21.71,40.19h-.02c-4.95,0-9.62-1.94-13.13-5.48-3.51-3.51-5.42-8.16-5.4-13.09,.07-10.18,8.36-18.49,18.53-18.51h.02c4.95,0,9.6,1.94,13.11,5.47,3.51,3.52,5.43,8.17,5.4,13.11-.05,10.2-8.36,18.51-18.51,18.51Zm21.71-40.19c-5.82-5.83-13.52-9.04-21.71-9.04h-.05c-16.8,.03-30.54,13.76-30.62,30.59-.05,8.19,3.12,15.9,8.92,21.73,5.82,5.83,13.52,9.05,21.73,9.05h.03c16.8-.02,30.54-13.74,30.64-30.59,.03-8.19-3.14-15.92-8.94-21.75Zm-21.71,40.19h-.02c-4.95,0-9.62-1.94-13.13-5.48-3.51-3.51-5.42-8.16-5.4-13.09,.07-10.18,8.36-18.49,18.53-18.51h.02c4.95,0,9.6,1.94,13.11,5.47,3.51,3.52,5.43,8.17,5.4,13.11-.05,10.2-8.36,18.51-18.51,18.51Zm21.71-40.19c-5.82-5.83-13.52-9.04-21.71-9.04h-.05c-16.8,.03-30.54,13.76-30.62,30.59-.05,8.19,3.12,15.9,8.92,21.73,5.82,5.83,13.52,9.05,21.73,9.05h.03c16.8-.02,30.54-13.74,30.64-30.59,.03-8.19-3.14-15.92-8.94-21.75Zm-21.71,40.19h-.02c-4.95,0-9.62-1.94-13.13-5.48-3.51-3.51-5.42-8.16-5.4-13.09,.07-10.18,8.36-18.49,18.53-18.51h.02c4.95,0,9.6,1.94,13.11,5.47,3.51,3.52,5.43,8.17,5.4,13.11-.05,10.2-8.36,18.51-18.51,18.51Z"/><path class="cls-1" d="M131.68,61.43c-1.36-19.47-9.97-35.52-25.59-47.72C80.79-6.06,44.15-4.26,20.88,17.88-4.99,42.51-7.07,81.65,16.04,108.91l29.27,34.52,12.17,14.03c5,5.76,14.01,5.5,18.67-.53l9.93-12.85c10.05-11.85,20.1-23.68,30.12-35.55,11.5-13.62,16.7-29.47,15.47-47.1Zm-24.74,39.28c-10.02,11.86-20.05,23.69-30.11,35.52l-1.66,1.95c-4.82,5.68-13.59,5.68-18.41,0l-31.47-37.1C6.42,78.78,8.12,46.79,29.25,26.67c10.13-9.65,23.41-14.55,36.7-14.55,11.55,0,23.11,3.69,32.68,11.16,12.78,9.99,19.82,23.09,20.93,38.99,1,14.37-3.26,27.3-12.63,38.43Z"/></g></g></g></svg>